<svg xmlns="http://www.w3.org/2000/svg" height="306" preserveAspectRatio="none" style="width:240px;height:306px" width="240"><defs><filter height="300%" id="a" width="300%" x="-1" y="-1"><feGaussianBlur result="blurOut" stdDeviation="2"/><feColorMatrix in="blurOut" result="blurOut2" values="0 0 0 0 0 0 0 0 0 0 0 0 0 0 0 0 0 0 .4 0"/><feOffset dx="4" dy="4" in="blurOut2" result="blurOut3"/><feBlend in="SourceGraphic" in2="blurOut3"/></filter></defs><ellipse cx="74.512" cy="22.524" fill="#FEFECE" filter="url(#a)" rx="44.012" ry="14.524" stroke="#a80036" stroke-width="1.5"/><text font-family="sans-serif" font-size="14" lengthAdjust="spacingAndGlyphs" textLength="58" x="45.512" y="27.172">example</text><ellipse cx="30.443" cy="108.754" fill="#FEFECE" filter="url(#a)" rx="13.943" ry="11.754" stroke="#a80036" stroke-width="1.5"/><text font-family="sans-serif" font-size="14" lengthAdjust="spacingAndGlyphs" textLength="8" x="26.443" y="113.403">a</text><ellipse cx="93.635" cy="108.908" fill="#FEFECE" filter="url(#a)" rx="14.135" ry="11.908" stroke="#a80036" stroke-width="1.5"/><text font-family="sans-serif" font-size="14" lengthAdjust="spacingAndGlyphs" textLength="9" x="89.135" y="113.557">b</text><ellipse cx="49.441" cy="195.524" fill="#FEFECE" filter="url(#a)" rx="36.941" ry="14.524" stroke="#a80036" stroke-width="1.5"/><text font-family="sans-serif" font-size="14" lengthAdjust="spacingAndGlyphs" textLength="48" x="25.441" y="200.172">shared</text><ellipse cx="49.305" cy="284.524" fill="#FEFECE" filter="url(#a)" rx="43.305" ry="14.524" stroke="#a80036" stroke-width="1.5"/><text font-family="sans-serif" font-size="14" lengthAdjust="spacingAndGlyphs" textLength="57" x="20.805" y="289.172">shared2</text><ellipse cx="175.385" cy="22.524" fill="#FEFECE" filter="url(#a)" rx="21.385" ry="14.524" stroke="#a80036" stroke-width="1.5"/><text font-family="sans-serif" font-size="14" lengthAdjust="spacingAndGlyphs" textLength="26" x="162.385" y="27.172">lazy</text><ellipse cx="156.443" cy="108.754" fill="#FEFECE" filter="url(#a)" rx="13.943" ry="11.754" stroke="#a80036" stroke-width="1.5"/><text font-family="sans-serif" font-size="14" lengthAdjust="spacingAndGlyphs" textLength="8" x="152.443" y="113.403">c</text><ellipse cx="219.635" cy="108.908" fill="#FEFECE" filter="url(#a)" rx="14.135" ry="11.908" stroke="#a80036" stroke-width="1.5"/><text font-family="sans-serif" font-size="14" lengthAdjust="spacingAndGlyphs" textLength="9" x="215.135" y="113.557">d</text><ellipse cx="156.428" cy="195.643" fill="#FEFECE" filter="url(#a)" rx="16.928" ry="14.143" stroke="#a80036" stroke-width="1.5"/><text font-family="sans-serif" font-size="14" lengthAdjust="spacingAndGlyphs" textLength="19" x="146.928" y="200.291">cjs</text><path d="M67.43 37.076L38.29 93.042" fill="none" stroke="#a80036"/><path fill="#A80036" stroke="#a80036" d="M35.888 97.653l7.705-6.134-5.396 1.7-1.7-5.396-.61 9.83z"/><path d="M77.553 37.076l12.372 55.025" fill="none" stroke="#a80036"/><path fill="#A80036" stroke="#a80036" d="M91.059 97.144l1.928-9.658-3.025 4.78-4.78-3.025 5.877 7.903z"/><path d="M32.984 121.047l12.352 54.934" fill="none" stroke="#a80036"/><path fill="#A80036" stroke="#a80036" d="M46.45 180.935l1.928-9.658-3.025 4.78-4.78-3.025 5.877 7.903z"/><path d="M49.5 210.094v54.335" fill="none" stroke="#a80036"/><path fill="#A80036" stroke="#a80036" d="M49.5 269.715l4-9-4 4-4-4 4 9z"/><path d="M118.688 22.5h29.859" fill="none" stroke="#a80036" stroke-dasharray="7,7"/><path fill="#A80036" stroke="#a80036" d="M153.751 22.5l-9-4 4 4-4 4 9-4z"/><path d="M172.447 37.076l-12.372 55.025" fill="none" stroke="#a80036"/><path fill="#A80036" stroke="#a80036" d="M158.941 97.144l5.878-7.903-4.78 3.025-3.025-4.78 1.927 9.658z"/><path d="M182.183 36.334l29.521 56.694" fill="none" stroke="#a80036"/><path fill="#A80036" stroke="#a80036" d="M214.142 97.71l-.607-9.83-1.701 5.395-5.395-1.702 7.703 6.137z"/><path d="M146.625 117.798l-77.34 61.078" fill="none" stroke="#a80036"/><path fill="#A80036" stroke="#a80036" d="M65.173 182.122l9.543-2.438-5.619-.66.66-5.619-4.584 8.717z"/><path d="M156.5 121.047v54.79" fill="none" stroke="#a80036"/><path fill="#A80036" stroke="#a80036" d="M156.5 181.224l4-9-4 4-4-4 4 9z"/></svg>