<svg xmlns="http://www.w3.org/2000/svg" height="492" preserveAspectRatio="none" style="width:395px;height:492px" width="395"><defs><filter height="300%" id="a" width="300%" x="-1" y="-1"><feGaussianBlur result="blurOut" stdDeviation="2"/><feColorMatrix in="blurOut" result="blurOut2" values="0 0 0 0 0 0 0 0 0 0 0 0 0 0 0 0 0 0 .4 0"/><feOffset dx="4" dy="4" in="blurOut2" result="blurOut3"/><feBlend in="SourceGraphic" in2="blurOut3"/></filter></defs><path fill="#FFF" filter="url(#a)" stroke="#000" stroke-width="2" d="M22 24.5h171V485H22z"/><text font-family="sans-serif" font-size="14" font-weight="bold" lengthAdjust="spacingAndGlyphs" textLength="66" x="74.5" y="39.495">Chunk A</text><path fill="#FFF" filter="url(#a)" stroke="#000" stroke-width="2" d="M46 67.5h123V268H46z"/><text font-family="sans-serif" font-size="14" font-weight="bold" lengthAdjust="spacingAndGlyphs" textLength="64" x="75.5" y="82.495">Scope 1</text><path fill="#FFF" filter="url(#a)" stroke="#000" stroke-width="2" d="M47 292h120v169H47z"/><text font-family="sans-serif" font-size="14" font-weight="bold" lengthAdjust="spacingAndGlyphs" textLength="64" x="75" y="306.995">Scope 2</text><path fill="#FFF" filter="url(#a)" stroke="#000" stroke-width="2" d="M217 147.5h171v313H217z"/><text font-family="sans-serif" font-size="14" font-weight="bold" lengthAdjust="spacingAndGlyphs" textLength="65" x="270" y="162.495">Chunk B</text><path fill="#FFF" filter="url(#a)" stroke="#000" stroke-width="2" d="M241 190.5h123v179H241z"/><text font-family="sans-serif" font-size="14" font-weight="bold" lengthAdjust="spacingAndGlyphs" textLength="64" x="270.5" y="205.495">Scope 3</text><ellipse cx="109.012" cy="117.024" fill="#FEFECE" filter="url(#a)" rx="44.012" ry="14.524" stroke="#a80036" stroke-width="1.5"/><text font-family="sans-serif" font-size="14" lengthAdjust="spacingAndGlyphs" textLength="58" x="80.012" y="121.672">example</text><ellipse cx="75.943" cy="239.754" fill="#FEFECE" filter="url(#a)" rx="13.943" ry="11.754" stroke="#a80036" stroke-width="1.5"/><text font-family="sans-serif" font-size="14" lengthAdjust="spacingAndGlyphs" textLength="8" x="71.943" y="244.403">a</text><ellipse cx="139.135" cy="239.908" fill="#FEFECE" filter="url(#a)" rx="14.135" ry="11.908" stroke="#a80036" stroke-width="1.5"/><text font-family="sans-serif" font-size="14" lengthAdjust="spacingAndGlyphs" textLength="9" x="134.635" y="244.557">b</text><ellipse cx="106.941" cy="341.524" fill="#FEFECE" filter="url(#a)" rx="36.941" ry="14.524" stroke="#a80036" stroke-width="1.5"/><text font-family="sans-serif" font-size="14" lengthAdjust="spacingAndGlyphs" textLength="48" x="82.941" y="346.172">shared</text><ellipse cx="106.805" cy="430.524" fill="#FEFECE" filter="url(#a)" rx="43.305" ry="14.524" stroke="#a80036" stroke-width="1.5"/><text font-family="sans-serif" font-size="14" lengthAdjust="spacingAndGlyphs" textLength="57" x="78.305" y="435.172">shared2</text><ellipse cx="270.928" cy="430.643" fill="#FEFECE" filter="url(#a)" rx="16.928" ry="14.143" stroke="#a80036" stroke-width="1.5"/><text font-family="sans-serif" font-size="14" lengthAdjust="spacingAndGlyphs" textLength="19" x="261.428" y="435.291">cjs</text><ellipse cx="278.885" cy="240.024" fill="#FEFECE" filter="url(#a)" rx="21.385" ry="14.524" stroke="#a80036" stroke-width="1.5"/><text font-family="sans-serif" font-size="14" lengthAdjust="spacingAndGlyphs" textLength="26" x="265.885" y="244.672">lazy</text><ellipse cx="270.943" cy="341.254" fill="#FEFECE" filter="url(#a)" rx="13.943" ry="11.754" stroke="#a80036" stroke-width="1.5"/><text font-family="sans-serif" font-size="14" lengthAdjust="spacingAndGlyphs" textLength="8" x="266.943" y="345.903">c</text><ellipse cx="334.135" cy="341.408" fill="#FEFECE" filter="url(#a)" rx="14.135" ry="11.908" stroke="#a80036" stroke-width="1.5"/><text font-family="sans-serif" font-size="14" lengthAdjust="spacingAndGlyphs" textLength="9" x="329.635" y="346.057">d</text><path d="M105.215 131.88l-24.871 91.193" fill="none" stroke="#a80036"/><path fill="#A80036" stroke="#a80036" d="M78.969 228.116l6.227-7.63-4.912 2.806-2.806-4.911 1.49 9.735z"/><path d="M112.441 131.88l22.61 91.193" fill="none" stroke="#a80036"/><path fill="#A80036" stroke="#a80036" d="M136.301 228.116l1.715-9.698-2.919 4.845-4.845-2.919 6.049 7.772z"/><path d="M79.436 252.028l21.779 69.903" fill="none" stroke="#a80036"/><path fill="#A80036" stroke="#a80036" d="M102.758 326.885l1.142-9.782-2.629 5.008-5.009-2.629 6.496 7.403z"/><path d="M107 356.094v54.335" fill="none" stroke="#a80036"/><path fill="#A80036" stroke="#a80036" d="M107 415.715l4-9-4 4-4-4 4 9z"/><path d="M141.19 126.941c9.315 3.265 19.267 7.441 27.81 12.559 39.097 23.42 76.71 62.014 96.205 83.608" fill="none" stroke="#a80036" stroke-dasharray="7,7"/><path fill="#A80036" stroke="#a80036" d="M268.63 226.934l-3.021-9.374-.313 5.648-5.649-.313 8.983 4.039z"/><path d="M277.888 254.835l-5.573 69.31" fill="none" stroke="#a80036"/><path fill="#A80036" stroke="#a80036" d="M271.905 329.243l4.71-8.65-4.309 3.666-3.666-4.308 3.265 9.292z"/><path d="M286.165 253.781A7547.303 7547.303 0 0 1 303 284c7.774 14.048 16.573 30.1 22.806 41.495" fill="none" stroke="#a80036"/><path fill="#A80036" stroke="#a80036" d="M328.309 330.074l-.808-9.816-1.59 5.429-5.43-1.591 7.828 5.978z"/><path d="M256.631 341.5H149.429" fill="none" stroke="#a80036"/><path fill="#A80036" stroke="#a80036" d="M144.156 341.5l9 4-4-4 4-4-9 4z"/><path d="M271 353.519v57.65" fill="none" stroke="#a80036"/><path fill="#A80036" stroke="#a80036" d="M271 416.3l4-9-4 4-4-4 4 9z"/></svg>