<svg xmlns="http://www.w3.org/2000/svg" height="378" preserveAspectRatio="none" style="width:299px;height:378px" width="299"><defs><filter height="300%" id="a" width="300%" x="-1" y="-1"><feGaussianBlur result="blurOut" stdDeviation="2"/><feColorMatrix in="blurOut" result="blurOut2" values="0 0 0 0 0 0 0 0 0 0 0 0 0 0 0 0 0 0 .4 0"/><feOffset dx="4" dy="4" in="blurOut2" result="blurOut3"/><feBlend in="SourceGraphic" in2="blurOut3"/></filter></defs><path fill="#FFF" filter="url(#a)" stroke="#000" stroke-width="2" d="M22 24h123v347H22z"/><text font-family="sans-serif" font-size="14" font-weight="bold" lengthAdjust="spacingAndGlyphs" textLength="66" x="50.5" y="38.995">Chunk A</text><path fill="#FFF" filter="url(#a)" stroke="#000" stroke-width="2" d="M169 113h123v257.5H169z"/><text font-family="sans-serif" font-size="14" font-weight="bold" lengthAdjust="spacingAndGlyphs" textLength="65" x="198" y="127.995">Chunk B</text><ellipse cx="85.012" cy="73.524" fill="#FEFECE" filter="url(#a)" rx="44.012" ry="14.524" stroke="#a80036" stroke-width="1.5"/><text font-family="sans-serif" font-size="14" lengthAdjust="spacingAndGlyphs" textLength="58" x="56.012" y="78.172">example</text><ellipse cx="51.943" cy="162.254" fill="#FEFECE" filter="url(#a)" rx="13.943" ry="11.754" stroke="#a80036" stroke-width="1.5"/><text font-family="sans-serif" font-size="14" lengthAdjust="spacingAndGlyphs" textLength="8" x="47.943" y="166.903">a</text><ellipse cx="115.135" cy="162.408" fill="#FEFECE" filter="url(#a)" rx="14.135" ry="11.908" stroke="#a80036" stroke-width="1.5"/><text font-family="sans-serif" font-size="14" lengthAdjust="spacingAndGlyphs" textLength="9" x="110.635" y="167.057">b</text><ellipse cx="82.941" cy="251.524" fill="#FEFECE" filter="url(#a)" rx="36.941" ry="14.524" stroke="#a80036" stroke-width="1.5"/><text font-family="sans-serif" font-size="14" lengthAdjust="spacingAndGlyphs" textLength="48" x="58.941" y="256.172">shared</text><ellipse cx="82.805" cy="340.524" fill="#FEFECE" filter="url(#a)" rx="43.305" ry="14.524" stroke="#a80036" stroke-width="1.5"/><text font-family="sans-serif" font-size="14" lengthAdjust="spacingAndGlyphs" textLength="57" x="54.305" y="345.172">shared2</text><ellipse cx="206.885" cy="162.524" fill="#FEFECE" filter="url(#a)" rx="21.385" ry="14.524" stroke="#a80036" stroke-width="1.5"/><text font-family="sans-serif" font-size="14" lengthAdjust="spacingAndGlyphs" textLength="26" x="193.885" y="167.172">lazy</text><ellipse cx="198.943" cy="251.254" fill="#FEFECE" filter="url(#a)" rx="13.943" ry="11.754" stroke="#a80036" stroke-width="1.5"/><text font-family="sans-serif" font-size="14" lengthAdjust="spacingAndGlyphs" textLength="8" x="194.943" y="255.903">c</text><ellipse cx="262.135" cy="251.408" fill="#FEFECE" filter="url(#a)" rx="14.135" ry="11.908" stroke="#a80036" stroke-width="1.5"/><text font-family="sans-serif" font-size="14" lengthAdjust="spacingAndGlyphs" textLength="9" x="257.635" y="256.057">d</text><ellipse cx="201.928" cy="340.643" fill="#FEFECE" filter="url(#a)" rx="16.928" ry="14.143" stroke="#a80036" stroke-width="1.5"/><text font-family="sans-serif" font-size="14" lengthAdjust="spacingAndGlyphs" textLength="19" x="192.428" y="345.291">cjs</text><path d="M79.844 88.094l-21.948 57.862" fill="none" stroke="#a80036"/><path fill="#A80036" stroke="#a80036" d="M56.08 150.745l6.933-6.995-5.16 2.32-2.32-5.159.547 9.834z"/><path d="M89.688 88.094l19.952 57.862" fill="none" stroke="#a80036"/><path fill="#A80036" stroke="#a80036" d="M111.291 150.745l.848-9.812-2.478 5.085-5.085-2.477 6.715 7.204z"/><path d="M55.801 174.168l20.663 57.99" fill="none" stroke="#a80036"/><path fill="#A80036" stroke="#a80036" d="M78.148 236.882l.746-9.82-2.425 5.11-5.11-2.425 6.789 7.135z"/><path d="M83 266.094v54.335" fill="none" stroke="#a80036"/><path fill="#A80036" stroke="#a80036" d="M83 325.715l4-9-4 4-4-4 4 9z"/><path d="M110.375 85.532C121.403 90.792 134.233 97.56 145 105c17.589 12.154 35.395 28.95 47.384 41.066" fill="none" stroke="#a80036" stroke-dasharray="7,7"/><path fill="#A80036" stroke="#a80036" d="M195.912 149.666l-3.44-9.228-.059 5.656-5.657-.058 9.156 3.63z"/><path d="M205.75 177.094l-5.256 57.16" fill="none" stroke="#a80036"/><path fill="#A80036" stroke="#a80036" d="M200.013 239.481l4.808-8.595-4.35 3.616-3.616-4.35 3.158 9.329z"/><path d="M215.115 176.337l37.839 59.854" fill="none" stroke="#a80036"/><path fill="#A80036" stroke="#a80036" d="M255.733 240.586l-1.428-9.745-1.244 5.519-5.518-1.244 8.19 5.47z"/><path d="M184.833 251.5h-59.624" fill="none" stroke="#a80036"/><path fill="#A80036" stroke="#a80036" d="M120.156 251.5l9 4-4-4 4-4-9 4z"/><path d="M199.38 263.519l1.988 57.65" fill="none" stroke="#a80036"/><path fill="#A80036" stroke="#a80036" d="M201.545 326.3l3.687-9.133-3.86 4.136-4.135-3.86 4.308 8.857z"/></svg>